<svg width="242" height="9" viewBox="0 0 242 9" fill="none" xmlns="http://www.w3.org/2000/svg">
<path d="M1 1L5 5C7.20914 7.20914 10.7909 7.20914 13 5V5C15.2091 2.79086 18.7909 2.79086 21 5V5C23.2091 7.20914 26.7909 7.20914 29 5V5C31.2091 2.79086 34.7909 2.79086 37 5V5C39.2091 7.20914 42.7909 7.20914 45 5V5C47.2091 2.79086 50.7909 2.79086 53 5V5C55.2091 7.20914 58.7909 7.20914 61 5V5C63.2091 2.79086 66.7909 2.79086 69 5V5C71.2091 7.20914 74.7909 7.20914 77 5V5C79.2091 2.79086 82.7909 2.79086 85 5V5C87.2091 7.20914 90.7909 7.20914 93 5V5C95.2091 2.79086 98.7909 2.79086 101 5V5C103.209 7.20914 106.791 7.20914 109 5V5C111.209 2.79086 114.791 2.79086 117 5V5C119.209 7.20914 122.791 7.20914 125 5V5C127.209 2.79086 130.791 2.79086 133 5V5C135.209 7.20914 138.791 7.20914 141 5V5C143.209 2.79086 146.791 2.79086 149 5V5C151.209 7.20914 154.791 7.20914 157 5V5C159.209 2.79086 162.791 2.79086 165 5V5C167.209 7.20914 170.791 7.20914 173 5V5C175.209 2.79086 178.791 2.79086 181 5V5C183.209 7.20914 186.791 7.20914 189 5V5C191.209 2.79086 194.791 2.79086 197 5V5C199.209 7.20914 202.791 7.20914 205 5V5C207.209 2.79086 210.791 2.79086 213 5V5C215.209 7.20914 218.791 7.20914 221 5V5C223.209 2.79086 226.791 2.79086 229 5V5C231.209 7.20914 234.791 7.20914 237 5L241 1" stroke="white" stroke-opacity="0.16" stroke-width="2"/>
<path d="M1 1L5 5C7.20914 7.20914 10.7909 7.20914 13 5V5C15.2091 2.79086 18.7909 2.79086 21 5V5C23.2091 7.20914 26.7909 7.20914 29 5V5C31.2091 2.79086 34.7909 2.79086 37 5V5C39.2091 7.20914 42.7909 7.20914 45 5V5C47.2091 2.79086 50.7909 2.79086 53 5V5C55.2091 7.20914 58.7909 7.20914 61 5L61.1995 4.8005C63.2985 2.70154 66.7015 2.70154 68.8005 4.8005V4.8005C71.049 7.04896 74.7232 6.79749 77.2509 4.8682C78.4693 3.9382 79.794 3.17228 81 3" stroke="#9196FF" stroke-width="2"/>
</svg>
