<svg width="20" height="20" viewBox="0 0 20 20" fill="none" xmlns="http://www.w3.org/2000/svg">
<path d="M15.8327 8.33464V10.0013C15.8327 11.5484 15.2181 13.0321 14.1241 14.1261C13.0302 15.2201 11.5464 15.8346 9.99935 15.8346M9.99935 15.8346C8.45225 15.8346 6.96852 15.2201 5.87456 14.1261C4.7806 13.0321 4.16602 11.5484 4.16602 10.0013V8.33464M9.99935 15.8346V18.3346M9.99935 1.66797C9.33631 1.66797 8.70042 1.93136 8.23158 2.4002C7.76274 2.86904 7.49935 3.50493 7.49935 4.16797V10.0013C7.49935 10.6643 7.76274 11.3002 8.23158 11.7691C8.70042 12.2379 9.33631 12.5013 9.99935 12.5013C10.6624 12.5013 11.2983 12.2379 11.7671 11.7691C12.236 11.3002 12.4993 10.6643 12.4993 10.0013V4.16797C12.4993 3.50493 12.236 2.86904 11.7671 2.4002C11.2983 1.93136 10.6624 1.66797 9.99935 1.66797Z" stroke="white" stroke-width="1.66667" stroke-linecap="round" stroke-linejoin="round"/>
</svg>
