<svg width="20" height="20" viewBox="0 0 20 20" fill="none" xmlns="http://www.w3.org/2000/svg">
<path d="M13.3327 10.8333L17.6852 13.735C17.7479 13.7768 17.8208 13.8007 17.8961 13.8043C17.9714 13.8079 18.0462 13.791 18.1127 13.7555C18.1791 13.7199 18.2347 13.6669 18.2734 13.6023C18.3122 13.5376 18.3326 13.4637 18.3327 13.3883V6.55833C18.3327 6.48502 18.3134 6.413 18.2767 6.34954C18.2399 6.28608 18.1871 6.23344 18.1236 6.19692C18.06 6.1604 17.9879 6.1413 17.9146 6.14155C17.8413 6.14179 17.7693 6.16138 17.706 6.19833L13.3327 8.75M3.33268 5H11.666C12.5865 5 13.3327 5.74619 13.3327 6.66667V13.3333C13.3327 14.2538 12.5865 15 11.666 15H3.33268C2.41221 15 1.66602 14.2538 1.66602 13.3333V6.66667C1.66602 5.74619 2.41221 5 3.33268 5Z" stroke="white" stroke-width="1.66667" stroke-linecap="round" stroke-linejoin="round"/>
</svg>
